HIERARCHY
ROOT Hips
{
  OFFSET 13.6774 106.653 -34.4427
  CHANNELS 6 Xposition Yposition Zposition Zrotation Xrotation Yrotation
  JOINT ToSpine
  {
    OFFSET -2.69724 7.43032 -0.144315
    CHANNELS 3 Zrotation Xrotation Yrotation
    JOINT Spine
    {
      OFFSET -0.0310711 10.7595 1.96963
      CHANNELS 3 Zrotation Xrotation Yrotation
      JOINT Spine1
      {
        OFFSET 19.9056 3.91189 0.764692
        CHANNELS 3 Zrotation Xrotation Yrotation
        JOINT Neck
        {
          OFFSET 25.9749 7.03908 -0.130764
          CHANNELS 3 Zrotation Xrotation Yrotation
          JOINT Head
          {
            OFFSET 9.52751 0.295786 -0.907742
            CHANNELS 3 Zrotation Xrotation Yrotation
            End Site
            {
              OFFSET 16.4037 0.713936 2.7358
            }
          }
        }
        JOINT LeftShoulder
        {
          OFFSET 17.7449 4.33886 11.7777
          CHANNELS 3 Zrotation Xrotation Yrotation
          JOINT LeftArm
          {
            OFFSET 0.911315 1.27913 9.80584
            CHANNELS 3 Zrotation Xrotation Yrotation
            JOINT LeftForeArm
            {
              OFFSET 28.6126 1.18197 -3.53199
              CHANNELS 3 Zrotation Xrotation Yrotation
              JOINT LeftHand
              {
                OFFSET 27.5088 0.0218783 0.327423
                CHANNELS 3 Zrotation Xrotation Yrotation
                End Site
                {
                  OFFSET 18.6038 -0.000155887 0.382096
                }
              }
            }
          }
        }
        JOINT RightShoulder
        {
          OFFSET 17.1009 2.89543 -12.2328
          CHANNELS 3 Zrotation Xrotation Yrotation
          JOINT RightArm
          {
            OFFSET 1.4228 0.178766 -10.211
            CHANNELS 3 Zrotation Xrotation Yrotation
            JOINT RightForeArm
            {
              OFFSET 28.733 1.87905 2.64907
              CHANNELS 3 Zrotation Xrotation Yrotation
              JOINT RightHand
              {
                OFFSET 27.4588 0.290562 -0.101845
                CHANNELS 3 Zrotation Xrotation Yrotation
                End Site
                {
                  OFFSET 17.8396 -0.255518 -0.000602873
                }
              }
            }
          }
        }
      }
    }
  }
  JOINT LeftUpLeg
  {
    OFFSET -5.61296 -2.22332 -10.2353
    CHANNELS 3 Zrotation Xrotation Yrotation
    JOINT LeftLeg
    {
      OFFSET 2.56703 -44.7417 -7.93097
      CHANNELS 3 Zrotation Xrotation Yrotation
      JOINT LeftFoot
      {
        OFFSET 3.16933 -46.5642 -3.96578
        CHANNELS 3 Zrotation Xrotation Yrotation
        JOINT LeftToeBase
        {
          OFFSET 0.346054 -6.02161 12.8035
          CHANNELS 3 Zrotation Xrotation Yrotation
          End Site
          {
            OFFSET 0.134235 -1.35082 5.13018
          }
        }
      }
    }
  }
  JOINT RightUpLeg
  {
    OFFSET -5.7928 -1.72406 10.6446
    CHANNELS 3 Zrotation Xrotation Yrotation
    JOINT RightLeg
    {
      OFFSET -2.57161 -44.7178 -7.85259
      CHANNELS 3 Zrotation Xrotation Yrotation
      JOINT RightFoot
      {
        OFFSET -3.10148 -46.5936 -4.03391
        CHANNELS 3 Zrotation Xrotation Yrotation
        JOINT RightToeBase
        {
          OFFSET -0.0828122 -6.13587 12.8035
          CHANNELS 3 Zrotation Xrotation Yrotation
          End Site
          {
            OFFSET -0.131328 -1.35082 5.13018
          }
        }
      }
    }
  }
}
MOTION
Frames: 17
Frame Time: 0.03333333333333333
0.0000 93.1000 0.0000 -42.5266 -43.2958 -145.2529 -71.0298 -0.1714 87.9305 89.6648 63.1194 -2.1104 5.3271 11.3146 10.9839 -130.2635 19.0617 -177.5663 -132.4840 53.0934 169.4625 0.6617 -12.1093 -12.4042 -108.0526 36.3592 -82.1426 -4.7443 2.7613 -126.8158 -3.0572 0.3709 0.7963 -0.6193 1.3408 22.8338 -69.3552 -44.4734 125.3377 2.6072 2.1786 131.1535 -0.3936 -0.0639 -2.3916 -67.6662 2.7098 103.6090 -2.6879 36.2342 -7.3354 -4.0816 -8.2566 -1.2127 10.2691 -20.9855 13.1417 -13.0232 16.3757 103.9210 4.7336 57.6055 13.1921 -4.9594 -11.2390 0.4832 0.0149 -6.8410 -2.0478 
0.0000 93.1000 0.0000 -38.2674 -47.8647 -139.4324 -70.9792 -0.2212 87.9149 87.6544 63.2565 -0.5478 4.8767 11.8438 11.5010 -128.2499 20.3247 181.6900 -132.2337 54.2354 169.5869 1.1818 -11.5081 -11.9469 -112.2595 37.8127 -82.2297 -4.1295 2.4578 -126.4906 -3.3835 -0.0002 0.9337 -0.5072 1.2673 20.8865 -69.7321 -45.5841 128.5086 5.1104 3.4171 130.1736 -0.1248 -0.4407 -1.3332 -66.7774 3.0352 101.5829 -2.6364 36.4015 -7.7531 -4.0580 -8.4430 -0.9822 10.3883 -22.7347 14.4465 -13.3457 13.6703 103.4421 5.7023 57.3048 11.2950 -5.0032 -13.5157 0.2752 -0.5130 -4.4879 -2.6976 
0.0000 93.1000 0.0000 -33.3106 -52.1217 -133.8714 -70.9696 -0.1159 87.8969 87.7490 63.9718 -0.0941 4.8361 12.4316 11.7358 -127.6312 22.0970 179.0462 -133.4646 56.6971 173.0668 0.6282 -12.1484 -11.5760 -114.5409 39.3779 -85.2911 -2.7736 1.3037 -127.1122 -3.1272 0.4663 0.5743 -0.3866 1.5838 18.1810 -71.8959 -46.7089 129.6352 8.3132 5.8969 128.3277 -0.3904 0.2029 -0.8844 -66.0170 5.3311 100.4485 -2.3505 36.0563 -6.1187 -4.9892 -7.8183 -1.2253 10.8164 -23.2812 12.6685 -14.7057 11.4567 102.8502 3.9413 57.8450 8.9967 -4.7949 -14.8515 0.6298 -0.4148 -4.5030 -1.6458 
0.0000 93.1000 0.0000 -26.3470 -57.3143 -127.1764 -70.9759 -0.0619 87.8861 87.6186 64.2143 -0.7717 4.3948 12.5551 10.4296 -124.3211 23.0839 178.2914 -136.9503 59.1753 176.9885 0.2984 -12.3840 -10.6833 -114.6438 41.8045 -89.0411 -0.7238 -0.3352 -126.2131 -2.9167 0.6928 0.1925 -0.4703 2.1768 17.3102 -74.6013 -46.7090 129.6911 9.4251 6.7363 127.5470 -0.1193 0.5414 -0.2377 -66.0664 6.1575 99.9305 -2.4932 35.3559 -6.0551 -5.0518 -7.2930 -1.3496 11.1267 -22.3671 15.5161 -17.4858 8.1489 100.8172 4.1378 57.3110 8.1875 -4.9302 -15.3744 0.9019 0.2122 -4.7300 -3.4426 
0.0000 93.1000 0.0000 -18.0907 -61.3770 -117.6348 -70.9751 -0.2014 87.8950 86.9445 64.5105 0.2766 4.1926 12.9881 8.7868 -122.2190 23.5266 174.3346 -134.7881 60.4705 175.0414 0.9962 -12.4260 -10.6054 -113.8862 44.0415 -91.8118 1.9469 -1.7913 -123.7217 -2.7066 -0.1043 0.8097 -0.4659 2.6354 16.9315 -78.6847 -46.8976 128.6537 10.1775 7.8235 126.4190 0.9511 -0.3172 0.7089 -64.6395 8.1109 99.7453 -1.3812 34.8769 -5.5114 -5.0545 -8.0809 -0.5298 9.3913 -20.5280 15.7594 -18.6508 4.0652 98.9958 4.6927 57.3243 6.5879 -5.9548 -15.6823 0.8161 1.0313 -5.4868 -4.4287 
0.0000 93.1000 0.0000 -6.9342 -63.4005 -105.9716 -70.9765 0.0050 87.7746 86.6339 65.4264 1.9149 4.4566 13.3581 8.5966 -120.0211 24.0049 174.4599 -139.6744 62.1786 -181.4787 0.2048 -12.8537 -11.6891 -112.2001 44.3134 -95.3248 2.9055 -2.8758 -122.5987 -2.7424 0.6214 0.3635 -0.3449 3.3406 13.6431 -80.7631 -49.2659 128.9434 12.9096 9.0462 124.4028 0.0583 0.6234 0.6024 -63.4863 9.3513 100.1892 -1.2989 34.7493 -1.7149 -6.7588 -8.5969 -0.9052 7.9799 -17.9602 13.9322 -20.5735 1.0124 97.3939 2.9868 56.0516 4.9919 -5.9618 -16.2986 1.3787 1.6018 -5.1091 -6.8907 
0.0000 93.1000 0.0000 3.9968 -64.1471 -94.0838 -70.9854 -0.0142 87.7888 84.6660 65.1565 3.0291 3.8696 13.6691 9.3521 -119.5997 24.5863 173.7878 -140.6615 63.6659 -177.5146 0.1330 -14.1278 -12.9369 -110.3264 45.0647 -98.4981 2.0997 -2.4636 -121.9638 -2.6362 0.5037 0.3277 -0.1846 4.0508 11.8136 -83.3908 -49.9719 126.5576 14.3352 10.0771 123.7104 0.3576 0.4960 0.7988 -61.7626 9.3083 100.7759 -2.2987 32.5226 -1.1842 -7.2093 -9.4380 -0.7742 7.1880 -17.7243 13.4359 -21.2937 -2.0276 93.8199 4.9220 54.7303 4.0738 -5.3272 -16.5715 1.1490 1.0746 -3.8141 -8.7602 
0.0000 93.1000 0.0000 14.8575 -64.0153 -81.7759 -71.0015 -0.0039 87.8097 83.5054 66.1154 5.1677 4.2608 14.6063 7.4295 -117.5582 24.3841 171.7067 -141.1026 64.4417 -177.5400 0.1005 -14.1687 -11.7846 -107.3571 46.8124 -103.6170 4.0865 -3.0381 -120.4147 -2.8320 0.4872 0.4869 -0.2087 4.5894 12.0697 -86.6136 -49.7081 124.4369 15.0346 10.0882 123.4280 0.4090 0.4728 0.5715 -60.7827 9.4393 101.6259 -2.5070 31.1175 1.5126 -6.2400 -8.7786 -0.8405 6.5574 -16.0169 11.3272 -22.4240 -4.2151 91.8250 4.0635 54.0176 3.4243 -5.9334 -16.0347 1.2587 0.8810 -4.1573 -8.9297 
0.0000 93.1000 0.0000 24.9112 -63.6984 -70.0988 -71.0106 -0.1811 87.8427 82.4749 66.3014 5.8741 4.5427 15.3550 6.4604 -116.4449 24.9911 169.7566 -144.2631 65.6604 -173.3231 1.0302 -14.3993 -12.3283 -105.3045 47.7698 -106.7299 5.9483 -4.0399 -118.0972 -2.6634 -0.4734 1.2455 -0.2574 4.7771 11.2882 -88.1682 -50.4402 124.0192 17.0226 10.6773 122.6231 1.3468 -0.5817 1.3310 -59.7578 10.5475 101.2878 -2.5555 31.4574 0.8049 -6.1127 -9.0014 0.0479 5.2928 -14.2367 13.4306 -24.4190 -6.6171 87.4042 2.9409 53.3236 4.1540 -6.1196 -15.9142 0.7035 0.6346 -2.6573 -8.9773 
0.0000 93.1000 0.0000 31.3708 -62.9341 -60.1942 -71.0227 0.0249 87.8193 82.5085 66.9841 6.0693 4.2705 15.6716 6.6209 -114.6110 24.7911 168.0684 -146.7048 66.3134 -171.6996 -0.0296 -14.3801 -11.7985 -103.1025 49.5208 -109.0054 7.5533 -5.2918 -118.1490 -2.7457 0.5704 0.7917 -0.2880 5.0083 11.4522 -91.1975 -49.7355 121.9730 18.1141 11.9015 122.5063 0.5605 0.5536 0.5212 -58.5665 11.0391 101.6039 -1.7941 30.4087 -0.8644 -5.6752 -9.0865 -1.0791 5.2781 -14.2909 14.6646 -26.2075 -9.8789 83.7315 2.9774 51.0745 5.0578 -6.1578 -14.6190 1.3026 1.4191 -4.6479 -10.3855 
0.0000 93.1000 0.0000 39.7728 -60.6708 -52.2813 -71.0357 -0.0398 87.8481 83.5572 67.2687 5.7999 4.0098 16.2601 6.1919 -112.1654 23.8243 163.6472 -142.3610 66.2021 -174.1847 0.3496 -14.6831 -11.2748 -100.2844 50.7785 -111.8553 9.6164 -6.1204 -116.1082 -2.8835 0.1879 1.1307 -0.3037 5.0672 13.3515 -95.2171 -48.0049 119.0833 18.0731 11.9060 122.7809 0.3128 0.1066 0.2327 -56.9665 11.8280 100.7274 -2.1843 30.2078 -0.2651 -4.5214 -8.3775 -0.8827 5.8269 -16.1094 12.5388 -29.3461 -11.8763 81.0613 3.1316 49.1213 5.3112 -6.1678 -14.7208 0.9036 1.4458 -3.0014 -9.6126 
0.0000 93.1000 0.0000 43.0767 -58.5580 -47.1633 -71.0599 -0.0025 87.8939 82.5298 68.1996 6.3233 4.0350 16.2680 5.5286 -111.5526 23.2182 160.1156 -140.6374 67.0972 -175.7975 0.1597 -14.9412 -10.4800 -97.1765 51.5660 -114.9875 9.7177 -5.9566 -115.6993 -2.7895 0.3390 0.9536 -0.3731 4.7248 14.3486 -98.3938 -46.9509 117.6014 18.5350 11.9571 123.7094 -0.2079 0.3037 0.1016 -55.7364 11.8066 99.4919 -1.9798 30.4232 0.1692 -2.5887 -7.6319 -1.1781 3.9269 -12.2630 12.1317 -30.4818 -13.2341 78.7657 1.2838 46.4562 4.0789 -4.5904 -14.2408 0.8354 0.8442 -2.2320 -6.7739 
0.0000 93.1000 0.0000 47.3760 -57.4966 -41.6352 -71.0755 0.0139 87.9216 83.2629 68.4309 6.2332 4.5186 16.8750 5.0695 -111.2925 23.1077 160.4178 -142.5711 67.4203 -174.8891 0.2468 -14.7763 -10.0838 -94.9148 51.7797 -117.6883 9.2487 -5.1392 -115.1067 -2.1340 0.3883 1.0052 -0.3279 4.5504 13.9087 -99.2539 -47.2771 116.6687 18.5059 13.3439 123.2714 -0.2687 0.3630 -0.1549 -54.7964 10.9704 98.4710 -1.4541 30.3253 0.8437 -1.1225 -7.9739 -1.4479 2.9339 -10.2942 9.1799 -31.8514 -13.9638 76.9886 1.9662 43.6841 2.8047 -4.2493 -12.0827 0.8217 -0.0966 -2.2759 -4.7177 
0.0000 93.1000 0.0000 50.5540 -55.9189 -39.1973 -71.0802 0.0216 87.9335 83.3285 68.6279 6.1303 4.6028 17.1363 6.0616 -112.3118 23.7819 161.7424 -147.4049 67.9424 -169.8400 0.3470 -14.2282 -10.9135 -94.0579 50.8677 -118.9653 10.1982 -5.0926 -114.3855 -1.8487 0.4412 1.2485 -0.1445 4.9702 12.4636 -99.1561 -48.4133 116.6318 20.8764 14.9443 123.1148 -0.1168 0.3946 -0.5338 -53.5657 10.7004 96.3134 -1.2508 30.1132 0.8875 -0.4873 -7.8470 -1.5791 3.1322 -10.6261 8.1252 -33.1848 -15.1536 75.4775 2.0558 42.4549 2.3624 -3.1174 -11.0250 0.6376 -0.3515 -1.2059 -3.2472 
0.0000 93.1000 0.0000 51.3474 -54.6525 -36.8345 -71.0816 -0.0065 87.9288 83.4314 68.7158 4.8335 4.0254 17.2377 5.7913 -111.4612 23.9752 162.9717 -150.1710 68.3439 -167.8143 0.4636 -14.2061 -11.0818 -93.0071 51.2570 -119.6229 9.7793 -5.2734 -113.2760 -1.9549 0.3073 1.6119 -0.1583 5.2228 12.3189 -101.1006 -48.7248 115.0055 22.2262 14.9955 123.3628 -0.0813 0.2193 -0.5504 -52.7500 10.0666 95.7192 -2.4330 29.8956 0.9539 -1.1532 -7.9482 -1.3323 3.2304 -9.8930 5.8568 -34.2812 -14.9895 75.5068 1.0170 40.0882 -0.4103 -3.2557 -9.6593 0.5225 -0.1338 -1.9849 -1.3634 
0.0000 93.1000 0.0000 53.3303 -53.8767 -35.0953 -71.0936 -0.0410 87.9396 82.5244 69.0003 5.6386 3.8824 17.6088 5.2650 -111.4108 22.8261 160.3177 -145.3060 68.3670 -171.3781 0.5824 -13.7807 -10.0613 -92.0307 51.7655 -122.7926 10.1209 -5.3482 -112.9130 -1.8667 0.0739 1.7013 -0.2945 5.3193 14.0943 -104.2310 -46.7942 113.0850 20.2219 14.0975 123.5317 -0.0782 -0.0592 -0.8790 -51.5995 9.6551 95.3784 -2.2797 30.9733 -0.4032 -1.3654 -9.0272 -1.1566 3.4100 -10.5780 5.1219 -35.2480 -15.6525 76.1614 1.0796 37.9412 -1.5058 -2.8694 -8.1178 0.2957 0.0713 -2.9875 -0.4109 
0.0000 93.1000 0.0000 54.6132 -54.0230 -33.0652 -71.0989 0.1180 87.9294 82.0748 69.4815 5.2710 4.8517 17.7624 5.2702 -111.2399 22.9511 157.6431 -145.2536 68.4529 -172.8946 -0.2343 -13.8990 -9.8433 -89.1588 52.9773 -125.1003 11.0096 -5.0921 -112.2606 -1.7141 0.7921 0.6286 -0.3907 5.1748 14.6883 -106.2604 -46.9822 110.3604 20.0729 14.9963 123.9376 -0.5692 0.8055 -1.3479 -51.7060 9.5842 95.7091 -1.8858 32.2458 -2.2054 -1.7058 -9.4985 -1.9318 3.5504 -10.3165 5.2455 -36.2531 -16.8608 75.8753 0.8165 35.9790 -2.8807 -3.6730 -6.4631 0.7189 0.2415 -3.8424 1.7801 
